<svg width="248" height="48" viewBox="0 0 248 48" fill="none" xmlns="http://www.w3.org/2000/svg">
<rect x="0.5" y="0.5" width="247" height="47" rx="7.5" fill="white"/>
<path d="M78.7173 30L76.0773 23.056L73.4373 30H71.7093L68.7813 18.64H70.7493L72.8133 26.896L76.0773 18.448L79.3253 26.896L81.4053 18.64H83.3893L80.4453 30H78.7173ZM83.1812 30L88.1412 18.64H89.7732L94.7332 30H92.7812L91.4852 27.024H86.3972L85.1172 30H83.1812ZM88.9412 21.168L87.1172 25.36H90.7652L88.9412 21.168ZM97.3422 30V20.432H94.0462V18.64H102.526V20.432H99.2142V30H97.3422ZM108.881 30.192C107.185 30.192 105.772 29.632 104.641 28.512C103.521 27.3813 102.961 25.984 102.961 24.32C102.961 22.656 103.521 21.264 104.641 20.144C105.772 19.0133 107.185 18.448 108.881 18.448C110.225 18.448 111.398 18.832 112.401 19.6C113.414 20.3573 114.065 21.3067 114.353 22.448H112.337C112.092 21.7973 111.654 21.2693 111.025 20.864C110.396 20.4587 109.681 20.256 108.881 20.256C107.708 20.256 106.742 20.6453 105.985 21.424C105.228 22.2027 104.849 23.168 104.849 24.32C104.849 25.472 105.228 26.4373 105.985 27.216C106.742 27.9947 107.708 28.384 108.881 28.384C109.681 28.384 110.396 28.1813 111.025 27.776C111.654 27.3707 112.092 26.8427 112.337 26.192H114.353C114.065 27.3333 113.414 28.288 112.401 29.056C111.398 29.8133 110.225 30.192 108.881 30.192ZM116.244 30V18.64H118.116V23.344H123.732V18.64H125.604V30H123.732V25.12H118.116V30H116.244ZM135.137 30L130.369 18.64H132.417L135.953 27.136L139.473 18.64H141.537L136.769 30H135.137ZM143.025 30V18.64H144.897V30H143.025ZM147.681 30V18.64H151.169C152.854 18.64 154.268 19.184 155.409 20.272C156.55 21.36 157.121 22.7093 157.121 24.32C157.121 25.9307 156.55 27.28 155.409 28.368C154.268 29.456 152.854 30 151.169 30H147.681ZM149.553 28.256H151.169C152.364 28.256 153.334 27.8827 154.081 27.136C154.838 26.3893 155.217 25.4507 155.217 24.32C155.217 23.1893 154.838 22.2507 154.081 21.504C153.334 20.7573 152.364 20.384 151.169 20.384H149.553V28.256ZM159.181 30V18.64H166.013V20.432H161.053V23.344H165.053V25.136H161.053V28.208H166.013V30H159.181ZM173.021 28.384C174.13 28.384 175.069 27.9893 175.837 27.2C176.605 26.4107 176.989 25.4507 176.989 24.32C176.989 23.1893 176.605 22.2293 175.837 21.44C175.069 20.6507 174.13 20.256 173.021 20.256C171.901 20.256 170.957 20.6507 170.189 21.44C169.421 22.2293 169.037 23.1893 169.037 24.32C169.037 25.4507 169.421 26.4107 170.189 27.2C170.957 27.9893 171.901 28.384 173.021 28.384ZM177.181 28.48C176.039 29.6213 174.653 30.192 173.021 30.192C171.389 30.192 170.002 29.6267 168.861 28.496C167.719 27.3547 167.149 25.9627 167.149 24.32C167.149 22.6773 167.719 21.2907 168.861 20.16C170.002 19.0187 171.389 18.448 173.021 18.448C174.653 18.448 176.039 19.0187 177.181 20.16C178.322 21.3013 178.893 22.688 178.893 24.32C178.893 25.952 178.322 27.3387 177.181 28.48Z" fill="#0095FF"/>
<rect x="0.5" y="0.5" width="247" height="47" rx="7.5" stroke="#0095FF"/>
</svg>
