<svg width="248" height="48" viewBox="0 0 248 48" fill="none" xmlns="http://www.w3.org/2000/svg">
<rect width="248" height="48" rx="8" fill="#0095FF"/>
<path d="M64.4594 30V20.432H61.1634V18.64H69.6434V20.432H66.3314V30H64.4594ZM71.3295 30V18.64H75.4255C76.4708 18.64 77.3028 18.944 77.9215 19.552C78.5508 20.1493 78.8655 20.9227 78.8655 21.872C78.8655 22.672 78.6415 23.3333 78.1935 23.856C77.7562 24.368 77.1215 24.7147 76.2895 24.896L80.5135 30H78.2095L74.0495 25.008H73.2015V30H71.3295ZM73.2015 23.376H75.2015C75.7562 23.376 76.1935 23.248 76.5135 22.992C76.8335 22.7253 76.9935 22.352 76.9935 21.872C76.9935 21.392 76.8335 21.024 76.5135 20.768C76.1935 20.5013 75.7562 20.368 75.2015 20.368H73.2015V23.376ZM84.1214 30V25.2L79.8174 18.64H82.0094L85.0494 23.344L88.1054 18.64H90.3134L85.9934 25.216V30H84.1214ZM95.1576 30V18.64H99.2536C100.299 18.64 101.131 18.944 101.75 19.552C102.379 20.1493 102.694 20.9227 102.694 21.872C102.694 22.672 102.47 23.3333 102.022 23.856C101.584 24.368 100.95 24.7147 100.118 24.896L104.342 30H102.038L97.8776 25.008H97.0296V30H95.1576ZM97.0296 23.376H99.0296C99.5843 23.376 100.022 23.248 100.342 22.992C100.662 22.7253 100.822 22.352 100.822 21.872C100.822 21.392 100.662 21.024 100.342 20.768C100.022 20.5013 99.5843 20.368 99.0296 20.368H97.0296V23.376ZM105.47 30V18.64H107.342V30H105.47ZM115.342 30.192C113.646 30.192 112.233 29.632 111.102 28.512C109.972 27.3813 109.406 25.984 109.406 24.32C109.406 22.656 109.966 21.264 111.086 20.144C112.217 19.0133 113.63 18.448 115.326 18.448C116.574 18.448 117.689 18.784 118.67 19.456C119.652 20.128 120.329 20.976 120.702 22H118.574C118.276 21.4773 117.833 21.056 117.246 20.736C116.67 20.416 116.03 20.256 115.326 20.256C114.153 20.256 113.188 20.6453 112.43 21.424C111.673 22.2027 111.294 23.168 111.294 24.32C111.294 25.472 111.673 26.4373 112.43 27.216C113.188 27.9947 114.158 28.384 115.342 28.384C116.377 28.384 117.225 28.0853 117.886 27.488C118.548 26.8907 118.942 26.1013 119.07 25.12H115.182V23.36H120.99C121.193 25.472 120.74 27.1413 119.63 28.368C118.532 29.584 117.102 30.192 115.342 30.192ZM123.095 30V18.64H124.967V23.344H130.583V18.64H132.455V30H130.583V25.12H124.967V30H123.095ZM137.459 30V20.432H134.163V18.64H142.643V20.432H139.331V30H137.459ZM157.484 30H155.852L149.452 21.824V30H147.58V18.64H149.212L155.595 26.8V18.64H157.484V30ZM165.419 28.384C166.528 28.384 167.467 27.9893 168.235 27.2C169.003 26.4107 169.387 25.4507 169.387 24.32C169.387 23.1893 169.003 22.2293 168.235 21.44C167.467 20.6507 166.528 20.256 165.419 20.256C164.299 20.256 163.355 20.6507 162.587 21.44C161.819 22.2293 161.435 23.1893 161.435 24.32C161.435 25.4507 161.819 26.4107 162.587 27.2C163.355 27.9893 164.299 28.384 165.419 28.384ZM169.579 28.48C168.438 29.6213 167.051 30.192 165.419 30.192C163.787 30.192 162.4 29.6267 161.259 28.496C160.118 27.3547 159.547 25.9627 159.547 24.32C159.547 22.6773 160.118 21.2907 161.259 20.16C162.4 19.0187 163.787 18.448 165.419 18.448C167.051 18.448 168.438 19.0187 169.579 20.16C170.72 21.3013 171.291 22.688 171.291 24.32C171.291 25.952 170.72 27.3387 169.579 28.48ZM182.163 30L179.523 23.056L176.883 30H175.155L172.227 18.64H174.195L176.259 26.896L179.523 18.448L182.771 26.896L184.851 18.64H186.835L183.891 30H182.163Z" fill="white"/>
</svg>
