<svg width="102" height="32" viewBox="0 0 102 32" fill="none" xmlns="http://www.w3.org/2000/svg">
<path d="M25.058 21L22.622 14.252L20.2 21H19.038L16.322 11.06H17.68L19.752 18.816L22.622 10.892L25.492 18.816L27.578 11.06H28.936L26.22 21H25.058ZM33.0799 21.14C32.0252 21.14 31.1479 20.79 30.4479 20.09C29.7572 19.3807 29.4119 18.5173 29.4119 17.5C29.4119 16.4827 29.7572 15.624 30.4479 14.924C31.1479 14.2147 32.0252 13.86 33.0799 13.86C34.1252 13.86 34.9932 14.2147 35.6839 14.924C36.3839 15.624 36.7339 16.4827 36.7339 17.5C36.7339 18.5173 36.3839 19.3807 35.6839 20.09C34.9932 20.79 34.1252 21.14 33.0799 21.14ZM31.3159 19.292C31.7732 19.7773 32.3612 20.02 33.0799 20.02C33.7986 20.02 34.3819 19.7773 34.8299 19.292C35.2779 18.8067 35.5019 18.2093 35.5019 17.5C35.5019 16.7907 35.2779 16.1933 34.8299 15.708C34.3819 15.2227 33.7986 14.98 33.0799 14.98C32.3612 14.98 31.7732 15.2227 31.3159 15.708C30.8679 16.1933 30.6439 16.7907 30.6439 17.5C30.6439 18.2093 30.8679 18.8067 31.3159 19.292ZM38.4621 21V14H39.6661V15.358C39.7968 14.9287 40.0488 14.5833 40.4221 14.322C40.8048 14.0607 41.2061 13.93 41.6261 13.93C41.8315 13.93 42.0135 13.9487 42.1721 13.986V15.232C42.0041 15.1573 41.7848 15.12 41.5141 15.12C41.0288 15.12 40.5995 15.33 40.2261 15.75C39.8528 16.17 39.6661 16.7627 39.6661 17.528V21H38.4621ZM46.2407 21.14C45.27 21.14 44.4533 20.7853 43.7907 20.076C43.1373 19.3667 42.8107 18.508 42.8107 17.5C42.8107 16.492 43.1373 15.6333 43.7907 14.924C44.4533 14.2147 45.27 13.86 46.2407 13.86C46.754 13.86 47.23 13.9767 47.6687 14.21C48.1167 14.434 48.462 14.7233 48.7047 15.078V10.5H49.9087V21H48.7047V19.922C48.462 20.2767 48.1167 20.5707 47.6687 20.804C47.23 21.028 46.754 21.14 46.2407 21.14ZM46.4227 20.034C47.1133 20.034 47.6827 19.7913 48.1307 19.306C48.5787 18.8207 48.8027 18.2187 48.8027 17.5C48.8027 16.7813 48.5787 16.1793 48.1307 15.694C47.6827 15.2087 47.1133 14.966 46.4227 14.966C45.7227 14.966 45.1487 15.2087 44.7007 15.694C44.2527 16.1793 44.0287 16.7813 44.0287 17.5C44.0287 18.2187 44.2527 18.8207 44.7007 19.306C45.1487 19.7913 45.7227 20.034 46.4227 20.034ZM53.379 23.926H52.175V14H53.379V15.078C53.6217 14.7233 53.9623 14.434 54.401 14.21C54.849 13.9767 55.3297 13.86 55.843 13.86C56.8137 13.86 57.6257 14.2147 58.279 14.924C58.9417 15.6333 59.273 16.492 59.273 17.5C59.273 18.508 58.9417 19.3667 58.279 20.076C57.6257 20.7853 56.8137 21.14 55.843 21.14C55.3297 21.14 54.849 21.028 54.401 20.804C53.9623 20.5707 53.6217 20.2767 53.379 19.922V23.926ZM53.953 19.306C54.401 19.7913 54.9703 20.034 55.661 20.034C56.3517 20.034 56.921 19.7913 57.369 19.306C57.817 18.8207 58.041 18.2187 58.041 17.5C58.041 16.7813 57.817 16.1793 57.369 15.694C56.921 15.2087 56.3517 14.966 55.661 14.966C54.9703 14.966 54.401 15.2087 53.953 15.694C53.505 16.1793 53.281 16.7813 53.281 17.5C53.281 18.2187 53.505 18.8207 53.953 19.306ZM61.007 21V14H62.211V15.358C62.3417 14.9287 62.5937 14.5833 62.967 14.322C63.3497 14.0607 63.751 13.93 64.171 13.93C64.3764 13.93 64.5584 13.9487 64.717 13.986V15.232C64.549 15.1573 64.3297 15.12 64.059 15.12C63.5737 15.12 63.1444 15.33 62.771 15.75C62.3977 16.17 62.211 16.7627 62.211 17.528V21H61.007ZM68.8699 21.14C67.8526 21.14 67.0079 20.7947 66.3359 20.104C65.6732 19.4133 65.3419 18.5453 65.3419 17.5C65.3419 16.4453 65.6639 15.5773 66.3079 14.896C66.9612 14.2053 67.8246 13.86 68.8979 13.86C69.9806 13.86 70.8299 14.2427 71.4459 15.008C72.0619 15.7733 72.3326 16.7113 72.2579 17.822H66.5599C66.5786 18.4567 66.8119 18.9887 67.2599 19.418C67.7079 19.838 68.2492 20.048 68.8839 20.048C69.8359 20.048 70.5126 19.656 70.9139 18.872H72.1459C71.9686 19.5253 71.5906 20.0667 71.0119 20.496C70.4332 20.9253 69.7192 21.14 68.8699 21.14ZM70.2419 15.428C69.8592 15.092 69.3972 14.924 68.8559 14.924C68.3146 14.924 67.8292 15.0873 67.3999 15.414C66.9799 15.7407 66.7186 16.226 66.6159 16.87H70.9839C70.8719 16.2353 70.6246 15.7547 70.2419 15.428ZM76.2493 21.14C75.4653 21.14 74.8073 20.9487 74.2753 20.566C73.7527 20.1833 73.4633 19.6513 73.4073 18.97H74.6393C74.714 19.362 74.9007 19.6513 75.1993 19.838C75.5073 20.0247 75.862 20.118 76.2633 20.118C76.6647 20.118 76.9867 20.0387 77.2293 19.88C77.4813 19.7213 77.6073 19.4927 77.6073 19.194C77.6073 18.914 77.514 18.6853 77.3273 18.508C77.15 18.3307 76.856 18.186 76.4453 18.074L75.4373 17.808C74.2333 17.4907 73.6313 16.8047 73.6313 15.75C73.6313 15.1807 73.8553 14.7233 74.3033 14.378C74.7607 14.0327 75.344 13.86 76.0533 13.86C76.772 13.86 77.36 14.0513 77.8173 14.434C78.284 14.8073 78.5453 15.2833 78.6013 15.862H77.3973C77.304 15.554 77.136 15.3113 76.8933 15.134C76.66 14.9567 76.38 14.868 76.0533 14.868C75.708 14.868 75.4187 14.9473 75.1853 15.106C74.9613 15.2647 74.8493 15.4747 74.8493 15.736C74.8493 15.988 74.9333 16.1933 75.1013 16.352C75.2693 16.5107 75.54 16.6413 75.9133 16.744L77.0333 17.038C78.228 17.3367 78.8253 18.0273 78.8253 19.11C78.8253 19.782 78.5873 20.2907 78.1113 20.636C77.6353 20.972 77.0147 21.14 76.2493 21.14ZM82.7845 21.14C82.0005 21.14 81.3425 20.9487 80.8105 20.566C80.2878 20.1833 79.9985 19.6513 79.9425 18.97H81.1745C81.2492 19.362 81.4358 19.6513 81.7345 19.838C82.0425 20.0247 82.3972 20.118 82.7985 20.118C83.1998 20.118 83.5218 20.0387 83.7645 19.88C84.0165 19.7213 84.1425 19.4927 84.1425 19.194C84.1425 18.914 84.0492 18.6853 83.8625 18.508C83.6852 18.3307 83.3912 18.186 82.9805 18.074L81.9725 17.808C80.7685 17.4907 80.1665 16.8047 80.1665 15.75C80.1665 15.1807 80.3905 14.7233 80.8385 14.378C81.2958 14.0327 81.8792 13.86 82.5885 13.86C83.3072 13.86 83.8952 14.0513 84.3525 14.434C84.8192 14.8073 85.0805 15.2833 85.1365 15.862H83.9325C83.8392 15.554 83.6712 15.3113 83.4285 15.134C83.1952 14.9567 82.9152 14.868 82.5885 14.868C82.2432 14.868 81.9538 14.9473 81.7205 15.106C81.4965 15.2647 81.3845 15.4747 81.3845 15.736C81.3845 15.988 81.4685 16.1933 81.6365 16.352C81.8045 16.5107 82.0752 16.6413 82.4485 16.744L83.5685 17.038C84.7632 17.3367 85.3605 18.0273 85.3605 19.11C85.3605 19.782 85.1225 20.2907 84.6465 20.636C84.1705 20.972 83.5498 21.14 82.7845 21.14Z" fill="#2E3A59"/>
<rect x="0.5" y="0.5" width="101" height="31" rx="3.5" stroke="#C5CEE0"/>
</svg>
