<svg width="208" height="152" viewBox="0 0 208 152" fill="none" xmlns="http://www.w3.org/2000/svg">
<path d="M208 111.398C208 91.5155 191.882 75.3978 172 75.3978H140C137.791 75.3978 136 77.1886 136 79.3978V147.276C136 149.485 137.791 151.276 140 151.276H172C191.882 151.276 208 135.158 208 115.276V111.398Z" fill="#FFA8B4"/>
<path fill-rule="evenodd" clip-rule="evenodd" d="M12 4.57315C7.589 4.57315 4 8.16215 4 12.5732C4 16.9841 7.589 20.5732 12 20.5732C16.411 20.5732 20 16.9841 20 12.5732C20 8.16215 16.411 4.57315 12 4.57315ZM12 22.5732C6.486 22.5732 2 18.0872 2 12.5732C2 7.05915 6.486 2.57315 12 2.57315C17.514 2.57315 22 7.05915 22 12.5732C22 18.0872 17.514 22.5732 12 22.5732Z" fill="#FFD6D9"/>
<path fill-rule="evenodd" clip-rule="evenodd" d="M48 4.57315C43.589 4.57315 40 8.16215 40 12.5732C40 16.9841 43.589 20.5732 48 20.5732C52.411 20.5732 56 16.9841 56 12.5732C56 8.16215 52.411 4.57315 48 4.57315ZM48 22.5732C42.486 22.5732 38 18.0872 38 12.5732C38 7.05915 42.486 2.57315 48 2.57315C53.514 2.57315 58 7.05915 58 12.5732C58 18.0872 53.514 22.5732 48 22.5732Z" fill="#FFD6D9"/>
<path fill-rule="evenodd" clip-rule="evenodd" d="M84 4.57315C79.589 4.57315 76 8.16215 76 12.5732C76 16.9841 79.589 20.5732 84 20.5732C88.411 20.5732 92 16.9841 92 12.5732C92 8.16215 88.411 4.57315 84 4.57315ZM84 22.5732C78.486 22.5732 74 18.0872 74 12.5732C74 7.05915 78.486 2.57315 84 2.57315C89.514 2.57315 94 7.05915 94 12.5732C94 18.0872 89.514 22.5732 84 22.5732Z" fill="#FFD6D9"/>
<path fill-rule="evenodd" clip-rule="evenodd" d="M120 4.57315C115.589 4.57315 112 8.16215 112 12.5732C112 16.9841 115.589 20.5732 120 20.5732C124.411 20.5732 128 16.9841 128 12.5732C128 8.16215 124.411 4.57315 120 4.57315ZM120 22.5732C114.486 22.5732 110 18.0872 110 12.5732C110 7.05915 114.486 2.57315 120 2.57315C125.514 2.57315 130 7.05915 130 12.5732C130 18.0872 125.514 22.5732 120 22.5732Z" fill="#FFD6D9"/>
<path fill-rule="evenodd" clip-rule="evenodd" d="M156 4.57315C151.589 4.57315 148 8.16215 148 12.5732C148 16.9841 151.589 20.5732 156 20.5732C160.411 20.5732 164 16.9841 164 12.5732C164 8.16215 160.411 4.57315 156 4.57315ZM156 22.5732C150.486 22.5732 146 18.0872 146 12.5732C146 7.05915 150.486 2.57315 156 2.57315C161.514 2.57315 166 7.05915 166 12.5732C166 18.0872 161.514 22.5732 156 22.5732Z" fill="#FFD6D9"/>
<path fill-rule="evenodd" clip-rule="evenodd" d="M12 40.5732C7.589 40.5732 4 44.1622 4 48.5732C4 52.9841 7.589 56.5732 12 56.5732C16.411 56.5732 20 52.9841 20 48.5732C20 44.1622 16.411 40.5732 12 40.5732ZM12 58.5732C6.486 58.5732 2 54.0872 2 48.5732C2 43.0592 6.486 38.5732 12 38.5732C17.514 38.5732 22 43.0592 22 48.5732C22 54.0872 17.514 58.5732 12 58.5732Z" fill="#FFD6D9"/>
<path fill-rule="evenodd" clip-rule="evenodd" d="M48 40.5732C43.589 40.5732 40 44.1622 40 48.5732C40 52.9841 43.589 56.5732 48 56.5732C52.411 56.5732 56 52.9841 56 48.5732C56 44.1622 52.411 40.5732 48 40.5732ZM48 58.5732C42.486 58.5732 38 54.0872 38 48.5732C38 43.0592 42.486 38.5732 48 38.5732C53.514 38.5732 58 43.0592 58 48.5732C58 54.0872 53.514 58.5732 48 58.5732Z" fill="#FFD6D9"/>
<path fill-rule="evenodd" clip-rule="evenodd" d="M84 40.5732C79.589 40.5732 76 44.1622 76 48.5732C76 52.9841 79.589 56.5732 84 56.5732C88.411 56.5732 92 52.9841 92 48.5732C92 44.1622 88.411 40.5732 84 40.5732ZM84 58.5732C78.486 58.5732 74 54.0872 74 48.5732C74 43.0592 78.486 38.5732 84 38.5732C89.514 38.5732 94 43.0592 94 48.5732C94 54.0872 89.514 58.5732 84 58.5732Z" fill="#FFD6D9"/>
<path fill-rule="evenodd" clip-rule="evenodd" d="M120 40.5732C115.589 40.5732 112 44.1622 112 48.5732C112 52.9841 115.589 56.5732 120 56.5732C124.411 56.5732 128 52.9841 128 48.5732C128 44.1622 124.411 40.5732 120 40.5732ZM120 58.5732C114.486 58.5732 110 54.0872 110 48.5732C110 43.0592 114.486 38.5732 120 38.5732C125.514 38.5732 130 43.0592 130 48.5732C130 54.0872 125.514 58.5732 120 58.5732Z" fill="#FFD6D9"/>
<path fill-rule="evenodd" clip-rule="evenodd" d="M156 40.5732C151.589 40.5732 148 44.1622 148 48.5732C148 52.9841 151.589 56.5732 156 56.5732C160.411 56.5732 164 52.9841 164 48.5732C164 44.1622 160.411 40.5732 156 40.5732ZM156 58.5732C150.486 58.5732 146 54.0872 146 48.5732C146 43.0592 150.486 38.5732 156 38.5732C161.514 38.5732 166 43.0592 166 48.5732C166 54.0872 161.514 58.5732 156 58.5732Z" fill="#FFD6D9"/>
<path fill-rule="evenodd" clip-rule="evenodd" d="M12 76.5732C7.589 76.5732 4 80.1622 4 84.5732C4 88.9841 7.589 92.5732 12 92.5732C16.411 92.5732 20 88.9841 20 84.5732C20 80.1622 16.411 76.5732 12 76.5732ZM12 94.5732C6.486 94.5732 2 90.0872 2 84.5732C2 79.0592 6.486 74.5732 12 74.5732C17.514 74.5732 22 79.0592 22 84.5732C22 90.0872 17.514 94.5732 12 94.5732Z" fill="#FFD6D9"/>
<path fill-rule="evenodd" clip-rule="evenodd" d="M48 76.5732C43.589 76.5732 40 80.1622 40 84.5732C40 88.9841 43.589 92.5732 48 92.5732C52.411 92.5732 56 88.9841 56 84.5732C56 80.1622 52.411 76.5732 48 76.5732ZM48 94.5732C42.486 94.5732 38 90.0872 38 84.5732C38 79.0592 42.486 74.5732 48 74.5732C53.514 74.5732 58 79.0592 58 84.5732C58 90.0872 53.514 94.5732 48 94.5732Z" fill="#FFD6D9"/>
<path fill-rule="evenodd" clip-rule="evenodd" d="M84 76.5732C79.589 76.5732 76 80.1622 76 84.5732C76 88.9841 79.589 92.5732 84 92.5732C88.411 92.5732 92 88.9841 92 84.5732C92 80.1622 88.411 76.5732 84 76.5732ZM84 94.5732C78.486 94.5732 74 90.0872 74 84.5732C74 79.0592 78.486 74.5732 84 74.5732C89.514 74.5732 94 79.0592 94 84.5732C94 90.0872 89.514 94.5732 84 94.5732Z" fill="#FFD6D9"/>
<path fill-rule="evenodd" clip-rule="evenodd" d="M120 76.5732C115.589 76.5732 112 80.1622 112 84.5732C112 88.9841 115.589 92.5732 120 92.5732C124.411 92.5732 128 88.9841 128 84.5732C128 80.1622 124.411 76.5732 120 76.5732ZM120 94.5732C114.486 94.5732 110 90.0872 110 84.5732C110 79.0592 114.486 74.5732 120 74.5732C125.514 74.5732 130 79.0592 130 84.5732C130 90.0872 125.514 94.5732 120 94.5732Z" fill="#FFD6D9"/>
<path fill-rule="evenodd" clip-rule="evenodd" d="M156 76.5732C151.589 76.5732 148 80.1622 148 84.5732C148 88.9841 151.589 92.5732 156 92.5732C160.411 92.5732 164 88.9841 164 84.5732C164 80.1622 160.411 76.5732 156 76.5732ZM156 94.5732C150.486 94.5732 146 90.0872 146 84.5732C146 79.0592 150.486 74.5732 156 74.5732C161.514 74.5732 166 79.0592 166 84.5732C166 90.0872 161.514 94.5732 156 94.5732Z" fill="#FFD6D9"/>
<path fill-rule="evenodd" clip-rule="evenodd" d="M12 112.573C7.589 112.573 4 116.162 4 120.573C4 124.984 7.589 128.573 12 128.573C16.411 128.573 20 124.984 20 120.573C20 116.162 16.411 112.573 12 112.573ZM12 130.573C6.486 130.573 2 126.087 2 120.573C2 115.059 6.486 110.573 12 110.573C17.514 110.573 22 115.059 22 120.573C22 126.087 17.514 130.573 12 130.573Z" fill="#FFD6D9"/>
<path fill-rule="evenodd" clip-rule="evenodd" d="M48 112.573C43.589 112.573 40 116.162 40 120.573C40 124.984 43.589 128.573 48 128.573C52.411 128.573 56 124.984 56 120.573C56 116.162 52.411 112.573 48 112.573ZM48 130.573C42.486 130.573 38 126.087 38 120.573C38 115.059 42.486 110.573 48 110.573C53.514 110.573 58 115.059 58 120.573C58 126.087 53.514 130.573 48 130.573Z" fill="#FFD6D9"/>
<path fill-rule="evenodd" clip-rule="evenodd" d="M84 112.573C79.589 112.573 76 116.162 76 120.573C76 124.984 79.589 128.573 84 128.573C88.411 128.573 92 124.984 92 120.573C92 116.162 88.411 112.573 84 112.573ZM84 130.573C78.486 130.573 74 126.087 74 120.573C74 115.059 78.486 110.573 84 110.573C89.514 110.573 94 115.059 94 120.573C94 126.087 89.514 130.573 84 130.573Z" fill="#FFD6D9"/>
<path fill-rule="evenodd" clip-rule="evenodd" d="M120 112.573C115.589 112.573 112 116.162 112 120.573C112 124.984 115.589 128.573 120 128.573C124.411 128.573 128 124.984 128 120.573C128 116.162 124.411 112.573 120 112.573ZM120 130.573C114.486 130.573 110 126.087 110 120.573C110 115.059 114.486 110.573 120 110.573C125.514 110.573 130 115.059 130 120.573C130 126.087 125.514 130.573 120 130.573Z" fill="#FFD6D9"/>
<path fill-rule="evenodd" clip-rule="evenodd" d="M156 112.573C151.589 112.573 148 116.162 148 120.573C148 124.984 151.589 128.573 156 128.573C160.411 128.573 164 124.984 164 120.573C164 116.162 160.411 112.573 156 112.573ZM156 130.573C150.486 130.573 146 126.087 146 120.573C146 115.059 150.486 110.573 156 110.573C161.514 110.573 166 115.059 166 120.573C166 126.087 161.514 130.573 156 130.573Z" fill="#FFD6D9"/>
</svg>
