<svg width="48" height="48" viewBox="0 0 328 181" fill="none" xmlns="http://www.w3.org/2000/svg">
<g clip-path="url(#clip0_352_2670)">
<path d="M168.779 180.074C163.594 180.836 158.346 181.089 153.111 180.829C140.488 180.193 128.074 176.53 117.466 169.644C112.762 166.59 108.275 162.839 105.84 157.8C102.535 150.956 103.691 142.292 108.41 136.331C110.131 134.181 112.249 132.379 114.648 131.022C115.004 130.822 115.367 130.629 115.734 130.444C119.732 128.438 124.223 127.618 128.674 128.08C136.241 128.905 143.225 133.517 147.26 139.96C150.854 145.704 152.106 152.483 152.844 159.276C152.983 160.556 153.103 161.84 153.219 163.117C152.576 166.814 151.565 170.438 150.201 173.935C150.131 174.106 150.074 174.281 150.031 174.46C150.804 176.133 151.539 177.822 152.237 179.526C152.894 179.881 153.628 180.067 154.375 180.066H168.748L168.779 180.074Z" fill="#F2F2F2"/>
<path d="M151.94 180.401C151.845 180.444 151.742 180.467 151.637 180.469C151.533 180.472 151.429 180.453 151.332 180.415C151.235 180.377 151.147 180.32 151.072 180.248C150.997 180.175 150.937 180.088 150.896 179.993C150.835 179.846 150.777 179.7 150.715 179.553C150.158 178.204 149.575 176.867 148.964 175.543C141.146 158.461 129.485 143.406 114.888 131.55C114.804 131.492 114.738 131.412 114.695 131.319C114.653 131.226 114.637 131.124 114.648 131.022C114.669 130.906 114.716 130.796 114.786 130.701C114.856 130.605 114.947 130.527 115.051 130.471C115.155 130.416 115.271 130.384 115.389 130.379C115.508 130.375 115.626 130.397 115.734 130.444C115.792 130.47 115.847 130.504 115.896 130.544C122.142 135.619 127.871 141.295 133.002 147.49C138.134 153.679 142.652 160.349 146.494 167.408C147.542 169.336 148.536 171.29 149.478 173.272C149.664 173.666 149.849 174.063 150.031 174.46C150.804 176.133 151.539 177.822 152.237 179.526C152.249 179.553 152.261 179.584 152.272 179.611C152.308 179.684 152.328 179.764 152.33 179.845C152.332 179.926 152.317 180.006 152.285 180.081C152.254 180.156 152.207 180.223 152.147 180.278C152.088 180.334 152.017 180.376 151.94 180.401Z" fill="white"/>
<path d="M100.68 129.549C109.005 129.549 115.753 122.817 115.753 114.512C115.753 106.208 109.005 99.4754 100.68 99.4754C92.3559 99.4754 85.6075 106.208 85.6075 114.512C85.6075 122.817 92.3559 129.549 100.68 129.549Z" fill="#FF3D71"/>
<path d="M99.1864 120.249C98.8472 120.249 98.5171 120.14 98.2458 119.937L98.2289 119.924L94.6867 117.219C94.5225 117.093 94.3848 116.937 94.2812 116.759C94.1776 116.58 94.1104 116.383 94.0832 116.179C94.056 115.974 94.0695 115.766 94.1228 115.567C94.1761 115.368 94.2683 115.181 94.394 115.017C94.5198 114.854 94.6766 114.716 94.8556 114.613C95.0346 114.51 95.2322 114.443 95.4371 114.416C95.642 114.389 95.8503 114.402 96.05 114.455C96.2497 114.509 96.437 114.601 96.601 114.726L98.8954 116.481L104.317 109.427C104.443 109.264 104.6 109.126 104.779 109.023C104.958 108.92 105.155 108.853 105.36 108.826C105.565 108.799 105.773 108.813 105.973 108.866C106.173 108.919 106.36 109.011 106.524 109.137L106.49 109.182L106.525 109.137C106.856 109.391 107.072 109.765 107.127 110.178C107.181 110.59 107.069 111.008 106.816 111.338L100.438 119.636C100.291 119.827 100.101 119.982 99.8841 120.088C99.6669 120.194 99.4282 120.249 99.1864 120.249Z" fill="white"/>
<path d="M327.54 181H0.460193C0.338376 181 0.221672 180.951 0.135659 180.865C0.0496465 180.779 0.00134277 180.662 0.00134277 180.541C0.00134277 180.419 0.0496465 180.303 0.135659 180.217C0.221672 180.131 0.338376 180.082 0.460193 180.082H327.54C327.662 180.082 327.778 180.131 327.864 180.217C327.95 180.303 327.999 180.419 327.999 180.541C327.999 180.662 327.95 180.779 327.864 180.865C327.778 180.951 327.662 181 327.54 181Z" fill="#3F3D56"/>
<path d="M63.9809 52.4153C70.1581 52.4153 75.1658 47.4196 75.1658 41.2571C75.1658 35.0946 70.1581 30.099 63.9809 30.099C57.8037 30.099 52.7961 35.0946 52.7961 41.2571C52.7961 47.4196 57.8037 52.4153 63.9809 52.4153Z" fill="#070613"/>
<path d="M55.2506 35.2409C57.058 33.4378 57.4243 30.8798 56.0687 29.5275C54.7132 28.1751 52.149 28.5406 50.3416 30.3437C48.5342 32.1468 48.1679 34.7048 49.5235 36.0572C50.879 37.4095 53.4431 37.0441 55.2506 35.2409Z" fill="#070613"/>
<path d="M75.6385 31.6975C76.3916 29.9387 75.0965 27.7009 72.7459 26.6992C70.3953 25.6975 67.8793 26.3112 67.1262 28.07C66.3731 29.8288 67.6682 32.0666 70.0188 33.0683C72.3694 34.07 74.8854 33.4563 75.6385 31.6975Z" fill="#070613"/>
<path d="M95.1261 105.678C95.4087 105.142 95.5701 104.551 95.5989 103.946C95.6277 103.341 95.5233 102.737 95.2929 102.177C95.0624 101.617 94.7117 101.114 94.2654 100.704C93.819 100.293 93.2879 99.9856 92.7095 99.8021L76.5482 65.6955L69.1555 70.8671L87.3661 102.767C87.1216 103.756 87.2496 104.801 87.7258 105.703C88.202 106.606 88.9933 107.302 89.9499 107.661C90.9064 108.02 91.9616 108.016 92.9156 107.651C93.8697 107.285 94.6562 106.583 95.1261 105.678V105.678Z" fill="#FFB8B8"/>
<path d="M80.2543 71.3857L71.6711 75.2147C71.4268 75.3236 71.162 75.3787 70.8944 75.3764C70.6269 75.374 70.3631 75.3141 70.1209 75.2008C69.8786 75.0875 69.6637 74.9234 69.4908 74.7198C69.3179 74.5162 69.1909 74.2778 69.1187 74.0208L66.5875 65.0167C66.0359 63.767 66.0036 62.3501 66.4975 61.0767C66.9915 59.8033 67.9715 58.7772 69.2226 58.2234C70.4737 57.6697 71.8939 57.6335 73.1717 58.1227C74.4496 58.612 75.4808 59.5868 76.0393 60.8334L81.0642 68.692C81.208 68.917 81.3015 69.1703 81.3383 69.4347C81.3751 69.699 81.3544 69.9682 81.2775 70.2238C81.2007 70.4794 81.0695 70.7155 80.8929 70.916C80.7163 71.1165 80.4985 71.2767 80.2543 71.3857Z" fill="#CCCCCC"/>
<path d="M40.6135 109.059C41.2048 108.922 41.7587 108.658 42.2364 108.284C42.714 107.91 43.1037 107.437 43.378 106.897C43.6523 106.356 43.8046 105.763 43.8241 105.158C43.8435 104.552 43.7298 103.95 43.4908 103.394L58.7965 68.8966L50.0408 66.6965L37.749 101.298C36.8383 101.76 36.1293 102.54 35.7564 103.489C35.3835 104.439 35.3726 105.491 35.7257 106.448C36.0788 107.405 36.7714 108.199 37.6722 108.68C38.5731 109.161 39.6196 109.296 40.6136 109.059H40.6135Z" fill="#FFB8B8"/>
<path d="M36.4413 171.589L40.8936 173.206L49.2652 156.843L42.6938 154.456L36.4413 171.589Z" fill="#FFB8B8"/>
<path d="M47.9748 180.449L33.9819 175.366L35.9503 169.973L44.5369 173.092C45.9708 173.613 47.1385 174.68 47.7832 176.06C48.4279 177.44 48.4969 179.019 47.9748 180.449Z" fill="#070613"/>
<path d="M46.9725 162.172C46.6993 162.172 46.4295 162.112 46.1825 161.995L41.0657 159.578C40.6463 159.381 40.3157 159.035 40.1391 158.608C39.9625 158.18 39.9528 157.702 40.1117 157.268L54.5522 117.375C54.6718 117.044 54.8829 116.754 55.1609 116.539C55.439 116.323 55.7726 116.191 56.1231 116.157C56.4735 116.123 56.8265 116.189 57.1409 116.347C57.4553 116.505 57.7184 116.749 57.8995 117.05L65.5373 129.749C65.7073 130.032 65.7987 130.355 65.8022 130.685C65.8058 131.015 65.7213 131.34 65.5574 131.626L48.5957 161.238C48.4314 161.523 48.1947 161.759 47.9097 161.923C47.6247 162.087 47.3014 162.173 46.9725 162.172Z" fill="#070613"/>
<path d="M64.3357 53.3907C69.5782 53.3907 73.8281 49.1509 73.8281 43.9209C73.8281 38.6908 69.5782 34.451 64.3357 34.451C59.0931 34.451 54.8432 38.6908 54.8432 43.9209C54.8432 49.1509 59.0931 53.3907 64.3357 53.3907Z" fill="#FFB8B8"/>
<path d="M77.7648 86.9766L60.9574 82.3654L52.0181 64.5298C51.5887 63.6729 51.3859 62.7208 51.4291 61.7638C51.4723 60.8068 51.7599 59.8767 52.2648 59.0618C52.7696 58.2469 53.4749 57.5742 54.3136 57.1077C55.1523 56.6413 56.0967 56.3964 57.0569 56.3964H70.4291C71.8171 56.3955 73.1564 56.9066 74.1896 57.8312C77.7767 61.037 85.313 70.2791 77.8376 86.8154L77.7648 86.9766Z" fill="#CCCCCC"/>
<path d="M56.7245 75.0662L48.2089 71.0897C47.9666 70.9765 47.7516 70.8126 47.5786 70.6091C47.4055 70.4056 47.2784 70.1672 47.206 69.9103C47.1336 69.6534 47.1176 69.3839 47.159 69.1202C47.2003 68.8566 47.2982 68.6049 47.4459 68.3824L52.6211 60.5852C53.2085 59.3519 54.2621 58.4013 55.5509 57.9418C56.8397 57.4822 58.2586 57.5513 59.4965 58.1337C60.7344 58.7162 61.6903 59.7646 62.1546 61.0491C62.6188 62.3335 62.5537 63.7492 61.9733 64.9858L59.2972 73.9166C59.2205 74.1723 59.0895 74.4085 58.913 74.6091C58.7366 74.8097 58.5189 74.97 58.2747 75.0791C58.0306 75.1882 57.7657 75.2435 57.4982 75.2413C57.2307 75.239 56.9668 75.1793 56.7245 75.0662Z" fill="#CCCCCC"/>
<path d="M67.0273 176.059H71.7652L74.0196 157.827L67.0261 157.827L67.0273 176.059Z" fill="#FFB8B8"/>
<path d="M80.9034 180.448L66.0119 180.449L66.0117 174.709L75.1496 174.709C76.6756 174.709 78.139 175.313 79.2181 176.39C80.2971 177.466 80.9034 178.926 80.9034 180.448Z" fill="#070613"/>
<path d="M68.8162 169.112C68.3902 169.112 67.977 168.966 67.6463 168.699C67.3155 168.431 67.0875 168.057 67.0006 167.641C65.6387 161.239 58.5651 128.448 53.0442 111.558C47.427 94.3728 56.9934 86.5454 58.9682 85.1508C59.1785 85.0026 59.3456 84.8014 59.4524 84.5676L60.8871 81.4191C61.0359 81.0941 61.2751 80.8185 61.5764 80.6253C61.8777 80.4321 62.2283 80.3293 62.5865 80.3293H62.5981C73.3535 80.3934 76.9692 83.7757 78.0244 85.227C78.1801 85.4432 78.2868 85.6905 78.3371 85.9519C78.3874 86.2133 78.3801 86.4825 78.3157 86.7408L71.5106 114.75C71.4684 114.924 71.4589 115.104 71.4824 115.281L78.253 166.137C78.2855 166.381 78.2689 166.629 78.2042 166.867C78.1395 167.105 78.0279 167.328 77.876 167.523C77.7241 167.717 77.5349 167.88 77.3194 168C77.1039 168.121 76.8665 168.198 76.6209 168.226L69.0348 169.099C68.9622 169.108 68.8893 169.112 68.8162 169.112Z" fill="#070613"/>
<path d="M54.3613 37.9643C56.5305 39.4558 59.1051 40.2496 61.7396 40.2391C60.7998 40.8892 59.73 41.3283 58.6038 41.5261C62.1065 42.2757 65.7266 42.296 69.2375 41.5857C70.018 41.4609 70.771 41.2029 71.4636 40.823C71.8087 40.6307 72.1095 40.3681 72.3462 40.0523C72.5829 39.7364 72.7504 39.3744 72.8376 38.9898C73.0709 37.6601 72.0324 36.4521 70.9531 35.638C69.3007 34.4106 67.3954 33.5649 65.3752 33.1621C63.3549 32.7594 61.2702 32.8097 59.2718 33.3093C57.967 33.6458 56.6598 34.2144 55.8122 35.2598C54.9646 36.3052 54.7136 37.9169 55.5211 38.9934L54.3613 37.9643Z" fill="#070613"/>
<path d="M228.607 79.0405C231.382 79.0405 233.631 76.7964 233.631 74.0282C233.631 71.26 231.382 69.0159 228.607 69.0159C225.832 69.0159 223.583 71.26 223.583 74.0282C223.583 76.7964 225.832 79.0405 228.607 79.0405Z" fill="#FF3D71"/>
<path d="M228.109 75.9403C227.996 75.9405 227.886 75.904 227.795 75.8364L227.79 75.8322L226.609 74.9303C226.554 74.8886 226.508 74.8365 226.473 74.777C226.439 74.7174 226.416 74.6517 226.407 74.5834C226.398 74.5152 226.402 74.4459 226.42 74.3794C226.438 74.3128 226.469 74.2505 226.511 74.1958C226.552 74.1412 226.605 74.0954 226.665 74.0609C226.724 74.0265 226.79 74.0042 226.859 73.9952C226.927 73.9863 226.997 73.9909 227.063 74.0088C227.13 74.0267 227.192 74.0575 227.247 74.0995L228.012 74.6845L229.819 72.3331C229.861 72.2786 229.913 72.2328 229.973 72.1984C230.033 72.1641 230.098 72.1417 230.167 72.1327C230.235 72.1237 230.304 72.1283 230.371 72.146C230.438 72.1638 230.5 72.1945 230.555 72.2363L230.543 72.2515L230.555 72.2365C230.665 72.3211 230.737 72.4458 230.756 72.5833C230.774 72.7209 230.737 72.86 230.652 72.9702L228.526 75.7361C228.477 75.7998 228.414 75.8514 228.341 75.8868C228.269 75.9222 228.189 75.9405 228.109 75.9403Z" fill="white"/>
<path d="M228.607 93.692C231.382 93.692 233.631 91.4479 233.631 88.6796C233.631 85.9114 231.382 83.6673 228.607 83.6673C225.832 83.6673 223.583 85.9114 223.583 88.6796C223.583 91.4479 225.832 93.692 228.607 93.692Z" fill="#FF3D71"/>
<path d="M228.109 90.5917C227.996 90.5919 227.886 90.5554 227.795 90.4878L227.79 90.4836L226.609 89.5817C226.554 89.54 226.508 89.4879 226.473 89.4284C226.439 89.3688 226.416 89.3031 226.407 89.2349C226.398 89.1666 226.402 89.0973 226.42 89.0308C226.438 88.9643 226.469 88.9019 226.511 88.8473C226.552 88.7926 226.605 88.7468 226.665 88.7123C226.724 88.6779 226.79 88.6556 226.859 88.6467C226.927 88.6377 226.997 88.6423 227.063 88.6602C227.13 88.6781 227.192 88.7089 227.247 88.7509L228.012 89.336L229.819 86.9846C229.861 86.93 229.913 86.8843 229.973 86.8499C230.033 86.8155 230.098 86.7932 230.167 86.7842C230.235 86.7752 230.304 86.7797 230.371 86.7974C230.438 86.8152 230.5 86.8459 230.555 86.8877L230.543 86.9029L230.555 86.8879C230.665 86.9725 230.737 87.0972 230.756 87.2348C230.774 87.3723 230.737 87.5115 230.652 87.6217L228.526 90.3875C228.477 90.4512 228.414 90.5028 228.341 90.5382C228.269 90.5736 228.189 90.5919 228.109 90.5917Z" fill="white"/>
<path d="M231.312 110.657C234.087 110.657 236.337 108.413 236.337 105.644C236.337 102.876 234.087 100.632 231.312 100.632C228.537 100.632 226.288 102.876 226.288 105.644C226.288 108.413 228.537 110.657 231.312 110.657Z" fill="#FF3D71"/>
<path d="M230.814 107.556C230.701 107.557 230.591 107.52 230.501 107.453L230.495 107.448L229.314 106.547C229.259 106.505 229.213 106.453 229.179 106.393C229.144 106.334 229.122 106.268 229.112 106.2C229.103 106.131 229.108 106.062 229.125 105.996C229.143 105.929 229.174 105.867 229.216 105.812C229.258 105.757 229.31 105.712 229.37 105.677C229.43 105.643 229.496 105.62 229.564 105.611C229.633 105.602 229.702 105.607 229.769 105.625C229.835 105.643 229.898 105.674 229.952 105.716L230.717 106.301L232.525 103.949C232.566 103.895 232.619 103.849 232.678 103.815C232.738 103.78 232.804 103.758 232.872 103.749C232.941 103.74 233.01 103.744 233.076 103.762C233.143 103.78 233.205 103.811 233.26 103.852L233.249 103.868L233.26 103.853C233.371 103.937 233.443 104.062 233.461 104.2C233.479 104.337 233.442 104.476 233.357 104.586L231.232 107.352C231.182 107.416 231.119 107.468 231.047 107.503C230.974 107.538 230.895 107.557 230.814 107.556Z" fill="white"/>
<path d="M279.76 147.493C279.708 147.493 279.676 147.492 279.664 147.491L273.426 147.492V146.574H279.687C279.832 146.58 282.789 146.663 285.513 143.365C289.574 138.449 292.908 126.28 285.735 96.2241C276.089 55.8091 284.134 20.1047 288.041 6.62987C288.233 5.96322 288.267 5.26104 288.141 4.57883C288.015 3.89662 287.731 3.25306 287.313 2.69901C286.894 2.14495 286.352 1.69558 285.73 1.38639C285.107 1.07721 284.421 0.916695 283.726 0.917519H190.57C189.861 0.918466 189.163 1.08599 188.532 1.4065C187.901 1.72702 187.354 2.19148 186.937 2.7622C185.282 5.03317 183.011 9.39589 181.59 17.2845L180.685 17.1223C182.137 9.06234 184.482 4.57126 186.193 2.22279C186.696 1.5351 187.354 0.975432 188.115 0.589217C188.875 0.203001 189.716 0.00112701 190.57 -1.27616e-05H283.726C284.564 -0.000817306 285.39 0.192798 286.141 0.565537C286.891 0.938275 287.544 1.47992 288.048 2.14769C288.552 2.81546 288.894 3.59104 289.046 4.41318C289.198 5.23531 289.156 6.08147 288.924 6.88479C285.038 20.2897 277.035 55.8089 286.63 96.0117C293.904 126.491 290.407 138.923 286.192 143.985C283.413 147.324 280.35 147.493 279.76 147.493Z" fill="#E6E6E6"/>
<path d="M262.976 164.238C262.923 164.238 262.891 164.237 262.879 164.236L256.642 164.237V163.319H262.902C263.048 163.324 266.004 163.408 268.729 160.109C272.789 155.194 276.123 143.025 268.95 112.969C259.304 72.5539 267.349 36.8495 271.256 23.3747C271.448 22.7081 271.483 22.0059 271.356 21.3237C271.23 20.6415 270.946 19.9979 270.528 19.4439C270.109 18.8898 269.567 18.4404 268.945 18.1312C268.322 17.8221 267.636 17.6615 266.941 17.6624H173.785C173.077 17.6633 172.379 17.8308 171.747 18.1513C171.116 18.4719 170.57 18.9363 170.152 19.507C168.497 21.778 166.226 26.1407 164.805 34.0293L163.9 33.8671C165.352 25.8072 167.697 21.3161 169.408 18.9676C169.911 18.2799 170.57 17.7203 171.33 17.3341C172.09 16.9478 172.931 16.746 173.785 16.7448H266.941C267.779 16.744 268.606 16.9376 269.356 17.3104C270.106 17.6831 270.759 18.2248 271.263 18.8925C271.767 19.5603 272.109 20.3359 272.261 21.158C272.413 21.9802 272.371 22.8263 272.139 23.6296C268.253 37.0346 260.25 72.5537 269.845 112.757C277.119 143.236 273.622 155.668 269.408 160.73C266.628 164.069 263.565 164.238 262.976 164.238Z" fill="#CCCCCC"/>
<path d="M253.06 129.503C243.463 89.3004 251.467 53.7784 255.355 40.3762C255.587 39.5729 255.628 38.7268 255.476 37.9049C255.324 37.0829 254.982 36.3075 254.478 35.6397C253.974 34.972 253.321 34.4303 252.571 34.0572C251.822 33.6841 250.995 33.49 250.157 33.4901H156.999C156.146 33.4909 155.305 33.6924 154.545 34.0783C153.785 34.4642 153.127 35.0235 152.624 35.7109C148.863 40.8697 141.06 57.9772 149.776 105.313C154.437 130.637 154.367 147.902 152.844 159.276C151.99 165.681 150.672 170.215 149.478 173.272L149.35 173.596C149.099 174.215 148.968 174.876 148.964 175.543C148.955 176.297 149.107 177.044 149.408 177.735C149.71 178.427 150.155 179.046 150.715 179.553C151.079 179.894 151.492 180.18 151.94 180.401C152.312 180.59 152.705 180.734 153.111 180.829C153.525 180.93 153.949 180.981 154.375 180.98H246.095C246.107 180.98 246.138 180.984 246.192 180.984C246.779 180.984 249.844 180.814 252.623 177.475C256.836 172.412 260.333 159.982 253.06 129.503ZM251.943 176.854C249.218 180.155 246.262 180.07 246.118 180.066H154.375C153.64 180.066 152.917 179.886 152.268 179.543C151.619 179.199 151.065 178.702 150.653 178.096C150.29 177.571 150.047 176.974 149.94 176.346C149.832 175.718 149.863 175.075 150.031 174.46C150.074 174.281 150.131 174.106 150.201 173.935C151.565 170.438 152.576 166.814 153.219 163.117C155.399 151.26 155.805 132.965 150.68 105.147C142.03 58.1623 149.679 41.3131 153.366 36.2507C153.784 35.6808 154.331 35.217 154.962 34.8969C155.593 34.5767 156.291 34.4092 156.999 34.4077H250.157C250.852 34.4072 251.538 34.5679 252.16 34.8771C252.782 35.1862 253.324 35.6354 253.742 36.1892C254.16 36.7429 254.444 37.3861 254.57 38.0679C254.697 38.7497 254.662 39.4515 254.47 40.1179C250.563 53.5933 242.52 89.3004 252.167 129.715C259.34 159.77 256.005 171.938 251.943 176.854Z" fill="#3F3D56"/>
<path d="M208.803 77.2671H160.807C159.831 77.2671 158.896 76.8804 158.206 76.1921C157.516 75.5039 157.128 74.5703 157.128 73.597C157.128 72.6236 157.516 71.6901 158.206 71.0018C158.896 70.3136 159.831 69.9269 160.807 69.9269H208.803C209.779 69.9269 210.715 70.3136 211.404 71.0018C212.094 71.6901 212.482 72.6236 212.482 73.597C212.482 74.5703 212.094 75.5039 211.404 76.1921C210.715 76.8804 209.779 77.2671 208.803 77.2671Z" fill="#CCCCCC"/>
<path d="M208.803 93.0752H160.807C159.831 93.0752 158.896 92.6885 158.206 92.0002C157.516 91.312 157.128 90.3785 157.128 89.4051C157.128 88.4317 157.516 87.4982 158.206 86.8099C158.896 86.1217 159.831 85.735 160.807 85.735H208.803C209.779 85.735 210.715 86.1217 211.404 86.8099C212.094 87.4982 212.482 88.4317 212.482 89.4051C212.482 90.3785 212.094 91.312 211.404 92.0002C210.715 92.6885 209.779 93.0752 208.803 93.0752Z" fill="#CCCCCC"/>
<path d="M212.668 109.269H164.672C163.696 109.269 162.761 108.882 162.071 108.194C161.381 107.506 160.993 106.572 160.993 105.599C160.993 104.625 161.381 103.692 162.071 103.004C162.761 102.315 163.696 101.929 164.672 101.929H212.668C213.644 101.929 214.579 102.315 215.269 103.004C215.959 103.692 216.347 104.625 216.347 105.599C216.347 106.572 215.959 107.506 215.269 108.194C214.579 108.882 213.644 109.269 212.668 109.269Z" fill="#CCCCCC"/>
<path d="M215.373 126.234H167.377C166.402 126.234 165.466 125.847 164.776 125.159C164.086 124.47 163.699 123.537 163.699 122.564C163.699 121.59 164.086 120.657 164.776 119.968C165.466 119.28 166.402 118.893 167.377 118.893H215.373C216.349 118.893 217.285 119.28 217.975 119.968C218.665 120.657 219.052 121.59 219.052 122.564C219.052 123.537 218.665 124.47 217.975 125.159C217.285 125.847 216.349 126.234 215.373 126.234Z" fill="#CCCCCC"/>
<path d="M215.394 48.7702H180.904C180.421 48.7706 179.942 48.6761 179.495 48.4919C179.049 48.3076 178.643 48.0374 178.301 47.6965C177.959 47.3557 177.687 46.9509 177.502 46.5054C177.317 46.0599 177.222 45.5823 177.222 45.1001C177.222 44.6178 177.317 44.1402 177.502 43.6947C177.687 43.2492 177.959 42.8444 178.301 42.5036C178.643 42.1627 179.049 41.8925 179.495 41.7082C179.942 41.524 180.421 41.4295 180.904 41.4299H215.394C216.369 41.4299 217.305 41.8166 217.995 42.5049C218.685 43.1932 219.073 44.1267 219.073 45.1001C219.073 46.0734 218.685 47.0069 217.995 47.6952C217.305 48.3835 216.369 48.7702 215.394 48.7702Z" fill="#FF3D71"/>
<path d="M234.404 127.576C237.179 127.576 239.428 125.332 239.428 122.564C239.428 119.795 237.179 117.551 234.404 117.551C231.629 117.551 229.38 119.795 229.38 122.564C229.38 125.332 231.629 127.576 234.404 127.576Z" fill="#CCCCCC"/>
<path d="M217.692 142.813H169.696C168.721 142.813 167.785 142.426 167.095 141.738C166.405 141.05 166.017 140.116 166.017 139.143C166.017 138.169 166.405 137.236 167.095 136.548C167.785 135.859 168.721 135.473 169.696 135.473H217.692C218.668 135.473 219.604 135.859 220.294 136.548C220.984 137.236 221.371 138.169 221.371 139.143C221.371 140.116 220.984 141.05 220.294 141.738C219.604 142.426 218.668 142.813 217.692 142.813Z" fill="#CCCCCC"/>
<path d="M236.723 144.155C239.498 144.155 241.747 141.911 241.747 139.143C241.747 136.375 239.498 134.13 236.723 134.13C233.948 134.13 231.699 136.375 231.699 139.143C231.699 141.911 233.948 144.155 236.723 144.155Z" fill="#CCCCCC"/>
</g>
<defs>
<clipPath id="clip0_352_2670">
<rect width="328" height="181" fill="white"/>
</clipPath>
</defs>
</svg>
