<svg width="24" height="24" viewBox="0 0 24 24" fill="none" xmlns="http://www.w3.org/2000/svg">
<path d="M1.70569 11.9994C1.70569 16.074 4.07363 19.5953 7.50732 21.264L2.59692 7.81007C2.00828 9.12823 1.70458 10.5558 1.70569 11.9994ZM18.949 11.48C18.949 10.2078 18.492 9.32673 18.1001 8.64097C17.5782 7.79302 17.0891 7.07495 17.0891 6.227C17.0891 5.28073 17.8068 4.39988 18.8177 4.39988C18.8634 4.39988 18.9067 4.40556 18.9511 4.4081C17.1197 2.73024 14.6797 1.70581 11.9997 1.70581C8.40345 1.70581 5.23948 3.55096 3.39884 6.3457C3.64035 6.35295 3.86796 6.35804 4.06129 6.35804C5.13801 6.35804 6.80471 6.22739 6.80471 6.22739C7.35963 6.19468 7.42505 7.00972 6.87072 7.07534C6.87072 7.07534 6.31307 7.14096 5.69253 7.17347L9.44119 18.3237L11.694 11.5673L10.0901 7.17308C9.5358 7.14056 9.01066 7.07495 9.01066 7.07495C8.45594 7.04243 8.52097 6.19429 9.07569 6.227C9.07569 6.227 10.7757 6.35765 11.7872 6.35765C12.8637 6.35765 14.5306 6.227 14.5306 6.227C15.0859 6.19429 15.1512 7.00933 14.5966 7.07495C14.5966 7.07495 14.0378 7.14056 13.4184 7.17308L17.1385 18.2389L18.1653 14.8077C18.6103 13.3839 18.949 12.3612 18.949 11.48Z" fill="#071168"/>
<path d="M12.1803 12.8998L9.09174 21.8746C10.036 22.1527 11.0153 22.2939 11.9997 22.294C13.1985 22.294 14.348 22.0867 15.4181 21.7104C15.3896 21.6654 15.365 21.618 15.3449 21.5686L12.1803 12.8998ZM21.0323 7.06055C21.0766 7.38844 21.1016 7.74043 21.1016 8.11906C21.1016 9.16366 20.9065 10.3379 20.3189 11.8062L17.1745 20.8974C20.2349 19.1127 22.2933 15.7972 22.2933 11.9995C22.2935 10.2098 21.8364 8.52687 21.0323 7.06055V7.06055Z" fill="#071168"/>
<path d="M11.9997 0C5.38324 0 0 5.38285 0 11.9993C0 18.6166 5.38324 23.9992 11.9997 23.9992C18.616 23.9992 24 18.6166 24 11.9993C23.9998 5.38285 18.616 0 11.9997 0ZM11.9997 23.4492C5.68665 23.4492 0.550213 18.3128 0.550213 11.9993C0.550213 5.68626 5.68645 0.550213 11.9997 0.550213C18.3126 0.550213 23.4486 5.68626 23.4486 11.9993C23.4486 18.3128 18.3126 23.4492 11.9997 23.4492Z" fill="#071168"/>
</svg>
